<svg width="162" height="46" viewBox="0 0 162 46" fill="none" xmlns="http://www.w3.org/2000/svg">
<path d="M162 41.3889C162 43.9365 159.914 46 157.335 46H4.67109C2.0928 46 0 43.9365 0 41.3889V4.6171C0 2.07077 2.0928 0 4.67109 0H157.334C159.915 0 161.999 2.07077 161.999 4.6171L162 41.3889Z" fill="#020617"/>
<path d="M43.3853 23.626C43.3501 19.7742 46.5877 17.9003 46.7358 17.813C44.9022 15.1802 42.0602 14.8205 41.0615 14.7918C38.6746 14.5445 36.3593 16.1985 35.1433 16.1985C33.9032 16.1985 32.0308 14.8157 30.0127 14.8564C27.4159 14.8958 24.9865 16.3765 23.6541 18.6759C20.9043 23.3643 22.9551 30.254 25.5896 34.0437C26.9074 35.8997 28.4473 37.972 30.4629 37.8991C32.4349 37.819 33.1714 36.6609 35.5511 36.6609C37.9089 36.6609 38.6006 37.8991 40.6562 37.8524C42.7725 37.819 44.1049 35.9881 45.3766 34.1154C46.8996 31.9881 47.5112 29.8931 47.5354 29.7855C47.4857 29.7688 43.4254 28.2427 43.3853 23.626Z" fill="white"/>
<path d="M39.5022 12.2989C40.5628 10.9926 41.2884 9.21551 41.087 7.41211C39.5519 7.47903 37.6322 8.45782 36.5267 9.73538C35.5487 10.8612 34.6749 12.7064 34.9007 14.4417C36.625 14.5684 38.3955 13.5848 39.5022 12.2989Z" fill="white"/>
<path d="M66.2688 12.2031C66.2688 13.0072 66.1191 13.6794 65.8196 14.2197C65.5201 14.7568 65.0856 15.1621 64.5159 15.4355C63.9462 15.7057 63.2594 15.8408 62.4554 15.8408H60.4729V8.70215H62.6702C63.4091 8.70215 64.0472 8.83561 64.5843 9.10254C65.1214 9.36621 65.5364 9.75846 65.8294 10.2793C66.1224 10.7969 66.2688 11.4382 66.2688 12.2031ZM65.0481 12.2373C65.0481 11.6514 64.9554 11.1696 64.7698 10.792C64.5875 10.4144 64.3173 10.1344 63.9593 9.95215C63.6044 9.7666 63.1666 9.67383 62.6458 9.67383H61.6448V14.8594H62.4749C63.3375 14.8594 63.9821 14.6396 64.4085 14.2002C64.8349 13.7607 65.0481 13.1064 65.0481 12.2373ZM68.8372 10.4355V15.8408H67.6897V10.4355H68.8372ZM68.2708 8.36523C68.4466 8.36523 68.5979 8.41243 68.7249 8.50684C68.8551 8.60124 68.9202 8.764 68.9202 8.99512C68.9202 9.22298 68.8551 9.38574 68.7249 9.4834C68.5979 9.5778 68.4466 9.625 68.2708 9.625C68.0885 9.625 67.9339 9.5778 67.8069 9.4834C67.6832 9.38574 67.6214 9.22298 67.6214 8.99512C67.6214 8.764 67.6832 8.60124 67.8069 8.50684C67.9339 8.41243 68.0885 8.36523 68.2708 8.36523ZM74.1155 14.2979C74.1155 14.6527 74.0293 14.9521 73.8567 15.1963C73.6842 15.4404 73.4319 15.626 73.0999 15.7529C72.7711 15.8766 72.3675 15.9385 71.889 15.9385C71.5113 15.9385 71.1858 15.9108 70.9124 15.8555C70.6422 15.8034 70.3867 15.722 70.1458 15.6113V14.6201C70.403 14.7406 70.691 14.8447 71.01 14.9326C71.3323 15.0205 71.6367 15.0645 71.9231 15.0645C72.3007 15.0645 72.5725 15.0059 72.7386 14.8887C72.9046 14.7682 72.9876 14.6087 72.9876 14.4102C72.9876 14.293 72.9534 14.1888 72.885 14.0977C72.8199 14.0033 72.6962 13.9072 72.514 13.8096C72.3349 13.7087 72.0712 13.5882 71.7229 13.4482C71.3811 13.3115 71.0931 13.1748 70.8587 13.0381C70.6243 12.9014 70.4469 12.737 70.3265 12.5449C70.206 12.3496 70.1458 12.1006 70.1458 11.7979C70.1458 11.3193 70.3346 10.9564 70.7122 10.709C71.0931 10.4583 71.596 10.333 72.221 10.333C72.553 10.333 72.8655 10.3672 73.1585 10.4355C73.4547 10.5007 73.7444 10.5967 74.0276 10.7236L73.6663 11.5879C73.4222 11.4805 73.1764 11.3926 72.929 11.3242C72.6849 11.2526 72.4358 11.2168 72.1819 11.2168C71.8857 11.2168 71.6595 11.2624 71.5032 11.3535C71.3502 11.4447 71.2737 11.5749 71.2737 11.7441C71.2737 11.8711 71.3112 11.9785 71.386 12.0664C71.4609 12.1543 71.5895 12.2422 71.7718 12.3301C71.9573 12.418 72.2145 12.527 72.5433 12.6572C72.8655 12.7809 73.1438 12.9111 73.3782 13.0479C73.6158 13.1813 73.7981 13.3457 73.9251 13.541C74.052 13.7363 74.1155 13.9886 74.1155 14.2979ZM78.1292 10.333C78.7705 10.333 79.2848 10.5674 79.6722 11.0361C80.0628 11.5049 80.2581 12.2015 80.2581 13.126C80.2581 13.738 80.1669 14.2539 79.9847 14.6738C79.8056 15.0905 79.5533 15.4062 79.2278 15.6211C78.9056 15.8327 78.5296 15.9385 78.0999 15.9385C77.8265 15.9385 77.5888 15.9027 77.387 15.8311C77.1852 15.7594 77.0127 15.6667 76.8694 15.5527C76.7262 15.4355 76.6058 15.3086 76.5081 15.1719H76.4397C76.456 15.3021 76.4707 15.4469 76.4837 15.6064C76.5 15.7627 76.5081 15.9059 76.5081 16.0361V18.2383H75.3558V10.4355H76.2933L76.4544 11.1826H76.5081C76.609 11.0296 76.7311 10.888 76.8743 10.7578C77.0208 10.6276 77.1966 10.5251 77.4016 10.4502C77.61 10.3721 77.8525 10.333 78.1292 10.333ZM77.8216 11.2705C77.5058 11.2705 77.2519 11.334 77.0599 11.4609C76.8711 11.5846 76.7327 11.7718 76.6448 12.0225C76.5602 12.2731 76.5146 12.5872 76.5081 12.9648V13.126C76.5081 13.5264 76.5488 13.8665 76.6302 14.1465C76.7148 14.4232 76.8531 14.6348 77.0452 14.7812C77.2405 14.9245 77.5042 14.9961 77.8362 14.9961C78.1162 14.9961 78.3473 14.9196 78.5296 14.7666C78.7151 14.6136 78.8535 14.3955 78.9446 14.1123C79.0358 13.8291 79.0813 13.4954 79.0813 13.1113C79.0813 12.5286 78.9772 12.0762 78.7688 11.7539C78.5638 11.4316 78.248 11.2705 77.8216 11.2705ZM86.3714 13.126C86.3714 13.5752 86.3128 13.974 86.1956 14.3223C86.0784 14.6706 85.9075 14.9652 85.6829 15.2061C85.4583 15.4437 85.1881 15.626 84.8724 15.7529C84.5566 15.8766 84.2002 15.9385 83.803 15.9385C83.4319 15.9385 83.0918 15.8766 82.7825 15.7529C82.4733 15.626 82.2047 15.4437 81.9768 15.2061C81.7522 14.9652 81.5781 14.6706 81.4544 14.3223C81.3307 13.974 81.2688 13.5752 81.2688 13.126C81.2688 12.5303 81.3714 12.0257 81.5765 11.6123C81.7848 11.1956 82.081 10.8783 82.4651 10.6602C82.8492 10.4421 83.3066 10.333 83.8372 10.333C84.3352 10.333 84.7747 10.4421 85.1556 10.6602C85.5364 10.8783 85.8343 11.1956 86.0491 11.6123C86.264 12.029 86.3714 12.5335 86.3714 13.126ZM82.4505 13.126C82.4505 13.5199 82.4977 13.8568 82.5921 14.1367C82.6897 14.4167 82.8395 14.6315 83.0413 14.7812C83.2431 14.9277 83.5035 15.001 83.8225 15.001C84.1416 15.001 84.402 14.9277 84.6038 14.7812C84.8056 14.6315 84.9537 14.4167 85.0481 14.1367C85.1425 13.8568 85.1897 13.5199 85.1897 13.126C85.1897 12.7321 85.1425 12.3984 85.0481 12.125C84.9537 11.8483 84.8056 11.6383 84.6038 11.4951C84.402 11.3486 84.1399 11.2754 83.8177 11.2754C83.3424 11.2754 82.9957 11.4349 82.7776 11.7539C82.5595 12.0729 82.4505 12.5303 82.4505 13.126ZM90.5071 10.333C91.1158 10.333 91.5895 10.4909 91.928 10.8066C92.2698 11.1191 92.4407 11.6221 92.4407 12.3154V15.8408H91.2933V12.5303C91.2933 12.1104 91.207 11.7962 91.0345 11.5879C90.8619 11.3763 90.595 11.2705 90.2337 11.2705C89.7096 11.2705 89.345 11.4316 89.1399 11.7539C88.9381 12.0762 88.8372 12.5433 88.8372 13.1553V15.8408H87.6897V10.4355H88.5833L88.7444 11.168H88.8079C88.9251 10.9792 89.0699 10.8245 89.2425 10.7041C89.4183 10.5804 89.6136 10.4876 89.8284 10.4258C90.0465 10.3639 90.2727 10.333 90.5071 10.333ZM95.1946 15.8408H94.0472V10.4355H95.1946V15.8408ZM96.2884 8.17969V8.27734C96.2102 8.37174 96.1044 8.48568 95.971 8.61914C95.8375 8.74935 95.6927 8.8877 95.5364 9.03418C95.3802 9.17741 95.2255 9.31576 95.0725 9.44922C94.9196 9.57943 94.7812 9.6901 94.6575 9.78125H93.8909V9.6543C93.9983 9.5306 94.1171 9.38249 94.2474 9.20996C94.3808 9.03743 94.511 8.86003 94.638 8.67773C94.7682 8.49544 94.8772 8.32943 94.9651 8.17969H96.2884ZM98.0755 15.8408L96.0198 10.4355H97.2356L98.3489 13.6094C98.4205 13.8112 98.4856 14.0293 98.5442 14.2637C98.6028 14.498 98.6435 14.695 98.6663 14.8545H98.7054C98.7281 14.6885 98.7721 14.4899 98.8372 14.2588C98.9023 14.0244 98.969 13.8079 99.0374 13.6094L100.151 10.4355H101.362L99.3059 15.8408H98.0755ZM104.335 10.333C104.817 10.333 105.23 10.4323 105.575 10.6309C105.921 10.8294 106.186 11.111 106.371 11.4756C106.557 11.8402 106.65 12.2764 106.65 12.7842V13.3994H103.041C103.054 13.9235 103.194 14.3271 103.461 14.6104C103.731 14.8936 104.109 15.0352 104.594 15.0352C104.939 15.0352 105.248 15.0026 105.522 14.9375C105.798 14.8691 106.083 14.7699 106.376 14.6396V15.5723C106.106 15.6992 105.831 15.792 105.551 15.8506C105.271 15.9092 104.936 15.9385 104.545 15.9385C104.015 15.9385 103.547 15.8359 103.144 15.6309C102.743 15.4225 102.429 15.1133 102.201 14.7031C101.977 14.293 101.865 13.7835 101.865 13.1748C101.865 12.5693 101.967 12.055 102.172 11.6318C102.377 11.2087 102.665 10.8864 103.036 10.665C103.408 10.4437 103.84 10.333 104.335 10.333ZM104.335 11.1973C103.974 11.1973 103.681 11.3145 103.456 11.5488C103.235 11.7832 103.105 12.1266 103.066 12.5791H105.527C105.523 12.3089 105.478 12.0697 105.39 11.8613C105.305 11.653 105.175 11.4902 104.999 11.373C104.827 11.2559 104.605 11.1973 104.335 11.1973ZM109.096 15.8408H107.944V8.24316H109.096V15.8408ZM116.152 10.333C116.76 10.333 117.234 10.4909 117.573 10.8066C117.914 11.1191 118.085 11.6221 118.085 12.3154V15.8408H116.938V12.5303C116.938 12.1104 116.852 11.7962 116.679 11.5879C116.506 11.3763 116.24 11.2705 115.878 11.2705C115.354 11.2705 114.99 11.4316 114.784 11.7539C114.583 12.0762 114.482 12.5433 114.482 13.1553V15.8408H113.334V10.4355H114.228L114.389 11.168H114.452C114.57 10.9792 114.714 10.8245 114.887 10.7041C115.063 10.5804 115.258 10.4876 115.473 10.4258C115.691 10.3639 115.917 10.333 116.152 10.333ZM121.811 10.333C122.494 10.333 123.01 10.4844 123.359 10.7871C123.71 11.0898 123.886 11.5618 123.886 12.2031V15.8408H123.071L122.851 15.0742H122.812C122.659 15.2695 122.501 15.4307 122.338 15.5576C122.175 15.6846 121.987 15.779 121.772 15.8408C121.56 15.9059 121.301 15.9385 120.995 15.9385C120.673 15.9385 120.385 15.8799 120.131 15.7627C119.877 15.6423 119.677 15.46 119.531 15.2158C119.384 14.9717 119.311 14.6624 119.311 14.2881C119.311 13.7314 119.518 13.3132 119.931 13.0332C120.348 12.7533 120.976 12.5986 121.816 12.5693L122.753 12.5352V12.252C122.753 11.8776 122.665 11.6107 122.49 11.4512C122.317 11.2917 122.073 11.2119 121.757 11.2119C121.487 11.2119 121.225 11.251 120.971 11.3291C120.717 11.4072 120.47 11.5033 120.229 11.6172L119.858 10.8066C120.121 10.6667 120.421 10.5527 120.756 10.4648C121.095 10.377 121.446 10.333 121.811 10.333ZM122.748 13.2578L122.05 13.2822C121.477 13.3018 121.075 13.3994 120.844 13.5752C120.613 13.751 120.497 13.9919 120.497 14.2979C120.497 14.5648 120.577 14.7601 120.737 14.8838C120.896 15.0042 121.106 15.0645 121.366 15.0645C121.764 15.0645 122.092 14.9521 122.353 14.7275C122.616 14.4997 122.748 14.166 122.748 13.7266V13.2578Z" fill="white"/>
<path d="M70.7329 32.7382H68.4695L67.2296 29.0046H62.9201L61.739 32.7382H59.5354L63.8051 20.0273H66.4423L70.7329 32.7382ZM66.8559 27.4382L65.7346 24.1191C65.616 23.78 65.3938 22.9816 65.0659 21.7246H65.026C64.8954 22.2652 64.6852 23.0637 64.3961 24.1191L63.2948 27.4382H66.8559Z" fill="white"/>
<path d="M81.713 28.0429C81.713 29.6017 81.2735 30.8338 80.3944 31.7383C79.6071 32.5435 78.6294 32.9456 77.4623 32.9456C76.2025 32.9456 75.2976 32.512 74.7464 31.6447H74.7065V36.4729H72.5817V26.5902C72.5817 25.6102 72.5548 24.6045 72.5029 23.5729H74.3717L74.4903 25.0257H74.5301C75.2388 23.9311 76.3141 23.3848 77.7573 23.3848C78.8855 23.3848 79.8274 23.8117 80.5808 24.6665C81.3363 25.5223 81.713 26.6475 81.713 28.0429ZM79.5483 28.1174C79.5483 27.2253 79.339 26.4899 78.9184 25.9111C78.4589 25.3074 77.842 25.0056 77.0686 25.0056C76.5444 25.0056 76.068 25.1737 75.6424 25.5051C75.2158 25.8394 74.9368 26.2759 74.8062 26.8165C74.7404 27.0687 74.7075 27.275 74.7075 27.4374V28.9656C74.7075 29.6323 74.9208 30.1948 75.3474 30.6542C75.774 31.1137 76.3281 31.3429 77.0098 31.3429C77.8101 31.3429 78.433 31.0468 78.8785 30.4565C79.325 29.8653 79.5483 29.0859 79.5483 28.1174Z" fill="white"/>
<path d="M92.7131 28.0429C92.7131 29.6017 92.2736 30.8338 91.3935 31.7383C90.6072 32.5435 89.6295 32.9456 88.4624 32.9456C87.2026 32.9456 86.2976 32.512 85.7475 31.6447H85.7076V36.4729H83.5828V26.5902C83.5828 25.6102 83.5558 24.6045 83.504 23.5729H85.3727L85.4914 25.0257H85.5312C86.2388 23.9311 87.3142 23.3848 88.7584 23.3848C89.8856 23.3848 90.8274 23.8117 91.5829 24.6665C92.3354 25.5223 92.7131 26.6475 92.7131 28.0429ZM90.5484 28.1174C90.5484 27.2253 90.3381 26.4899 89.9175 25.9111C89.458 25.3074 88.8431 25.0056 88.0687 25.0056C87.5435 25.0056 87.0681 25.1737 86.6415 25.5051C86.2149 25.8394 85.9369 26.2759 85.8063 26.8165C85.7415 27.0687 85.7076 27.275 85.7076 27.4374V28.9656C85.7076 29.6323 85.9209 30.1948 86.3455 30.6542C86.772 31.1127 87.3262 31.3429 88.0099 31.3429C88.8102 31.3429 89.4331 31.0468 89.8786 30.4565C90.3251 29.8653 90.5484 29.0859 90.5484 28.1174Z" fill="white"/>
<path d="M105.012 29.1734C105.012 30.2546 104.62 31.1343 103.834 31.8133C102.97 32.5555 101.767 32.9261 100.221 32.9261C98.7937 32.9261 97.6495 32.6625 96.7834 32.1343L97.2758 30.437C98.2086 30.9776 99.2322 31.2489 100.347 31.2489C101.148 31.2489 101.771 31.075 102.218 30.7293C102.664 30.3835 102.886 29.9193 102.886 29.3405C102.886 28.8248 102.703 28.3902 102.335 28.0377C101.969 27.6853 101.358 27.3577 100.505 27.0549C98.1827 26.2249 97.0226 25.009 97.0226 23.4101C97.0226 22.3652 97.4293 21.5085 98.2435 20.8418C99.0548 20.1742 100.137 19.8408 101.491 19.8408C102.698 19.8408 103.7 20.0424 104.501 20.4445L103.969 22.1045C103.222 21.7148 102.377 21.5199 101.431 21.5199C100.683 21.5199 100.099 21.6966 99.6807 22.0481C99.3269 22.3624 99.1495 22.7454 99.1495 23.1991C99.1495 23.7014 99.3518 24.1169 99.7584 24.4436C100.112 24.7454 100.755 25.0721 101.688 25.4245C102.829 25.8648 103.667 26.3796 104.207 26.9699C104.744 27.5583 105.012 28.2947 105.012 29.1734Z" fill="white"/>
<path d="M112.037 25.101H109.695V29.5509C109.695 30.6827 110.108 31.2482 110.935 31.2482C111.315 31.2482 111.63 31.2167 111.879 31.1536L111.938 32.7C111.519 32.8499 110.968 32.9254 110.285 32.9254C109.446 32.9254 108.79 32.6799 108.317 32.1899C107.845 31.699 107.608 30.8757 107.608 29.719V25.0991H106.213V23.5709H107.608V21.8927L109.695 21.2891V23.5709H112.037V25.101Z" fill="white"/>
<path d="M122.605 28.0792C122.605 29.488 122.184 30.6447 121.345 31.5492C120.465 32.4804 119.297 32.9446 117.841 32.9446C116.437 32.9446 115.32 32.4986 114.487 31.6065C113.654 30.7144 113.237 29.5883 113.237 28.2311C113.237 26.8108 113.666 25.6475 114.526 24.743C115.384 23.8375 116.542 23.3848 117.998 23.3848C119.402 23.3848 120.531 23.8308 121.383 24.7239C122.198 25.5902 122.605 26.7086 122.605 28.0792ZM120.4 28.1451C120.4 27.2998 120.212 26.5749 119.83 25.9703C119.385 25.2387 118.748 24.8738 117.922 24.8738C117.068 24.8738 116.42 25.2396 115.974 25.9703C115.592 26.5758 115.404 27.3123 115.404 28.1833C115.404 29.0286 115.592 29.7536 115.974 30.3572C116.433 31.0888 117.075 31.4537 117.904 31.4537C118.715 31.4537 119.352 31.0812 119.811 30.3381C120.203 29.722 120.4 28.9895 120.4 28.1451Z" fill="white"/>
<path d="M129.512 25.3638C129.301 25.3265 129.077 25.3074 128.842 25.3074C128.094 25.3074 127.516 25.5777 127.11 26.1193C126.756 26.5969 126.578 27.2005 126.578 27.9293V32.7383H124.455L124.475 26.4593C124.475 25.403 124.448 24.4411 124.395 23.5739H126.246L126.323 25.3275H126.382C126.606 24.7248 126.96 24.2396 127.445 23.8757C127.918 23.5481 128.429 23.3848 128.98 23.3848C129.177 23.3848 129.354 23.3981 129.512 23.422V25.3638Z" fill="white"/>
<path d="M139.015 27.7216C139.015 28.0865 138.99 28.394 138.937 28.6452H132.562C132.587 29.5507 132.895 30.2432 133.487 30.7207C134.024 31.1477 134.719 31.3616 135.572 31.3616C136.516 31.3616 137.377 31.2174 138.152 30.928L138.484 32.3416C137.58 32.7198 136.511 32.908 135.278 32.908C133.795 32.908 132.631 32.4896 131.784 31.6539C130.939 30.8181 130.515 29.6959 130.515 28.288C130.515 26.9059 130.909 25.755 131.697 24.8371C132.522 23.8572 133.638 23.3672 135.041 23.3672C136.419 23.3672 137.463 23.8572 138.172 24.8371C138.733 25.6156 139.015 26.5783 139.015 27.7216ZM136.989 27.1934C137.002 26.5898 136.864 26.0683 136.576 25.628C136.208 25.0616 135.643 24.7789 134.883 24.7789C134.188 24.7789 133.623 25.0549 133.191 25.6089C132.837 26.0492 132.627 26.5774 132.562 27.1925H136.989V27.1934Z" fill="white"/>
</svg>
