<svg width="120" height="120" viewBox="0 0 120 120" fill="none" xmlns="http://www.w3.org/2000/svg">
<rect width="120" height="120" rx="60" fill="#FFB492" fill-opacity="0.2"/>
<path d="M59.7173 89.728C74.3713 89.728 86.2506 77.8487 86.2506 63.1947C86.2506 48.5408 74.3713 36.6614 59.7173 36.6614C45.0633 36.6614 33.184 48.5408 33.184 63.1947C33.184 77.8487 45.0633 89.728 59.7173 89.728Z" fill="#FFB492"/>
<path d="M41.6614 56.9973C46.9648 56.9973 51.264 52.6981 51.264 47.3947C51.264 42.0913 46.9648 37.792 41.6614 37.792C36.358 37.792 32.0587 42.0913 32.0587 47.3947C32.0587 52.6981 36.358 56.9973 41.6614 56.9973Z" fill="#FFB492"/>
<path d="M74.1201 87.7679C78.6576 87.7679 82.3361 84.0895 82.3361 79.5519C82.3361 75.0144 78.6576 71.3359 74.1201 71.3359C69.5825 71.3359 65.9041 75.0144 65.9041 79.5519C65.9041 84.0895 69.5825 87.7679 74.1201 87.7679Z" fill="#FFB492"/>
<path d="M85.8267 85.6347C86.7354 85.6347 87.4721 84.898 87.4721 83.9893C87.4721 83.0806 86.7354 82.344 85.8267 82.344C84.918 82.344 84.1814 83.0806 84.1814 83.9893C84.1814 84.898 84.918 85.6347 85.8267 85.6347Z" fill="#FFB492"/>
<path d="M78.7653 40.1547C78.5691 40.1547 78.3773 40.2128 78.2142 40.3218C78.0511 40.4308 77.9239 40.5858 77.8488 40.767C77.7737 40.9483 77.7541 41.1478 77.7924 41.3402C77.8307 41.5326 77.9251 41.7094 78.0639 41.8481C78.2026 41.9868 78.3794 42.0813 78.5718 42.1196C78.7642 42.1579 78.9637 42.1382 79.1449 42.0632C79.3262 41.9881 79.4811 41.8609 79.5901 41.6978C79.6991 41.5347 79.7573 41.3429 79.7573 41.1467C79.7566 40.8838 79.6519 40.6319 79.466 40.446C79.2801 40.2601 79.0282 40.1554 78.7653 40.1547Z" fill="#FFB492"/>
<path d="M41.96 33.2666C42.7877 33.2666 43.4586 32.5956 43.4586 31.768C43.4586 30.9403 42.7877 30.2693 41.96 30.2693C41.1323 30.2693 40.4613 30.9403 40.4613 31.768C40.4613 32.5956 41.1323 33.2666 41.96 33.2666Z" fill="#FFB492"/>
<path d="M29.4987 71.0773C30.3264 71.0773 30.9973 70.4063 30.9973 69.5786C30.9973 68.7509 30.3264 68.08 29.4987 68.08C28.671 68.08 28 68.7509 28 69.5786C28 70.4063 28.671 71.0773 29.4987 71.0773Z" fill="#FFB492"/>
<path d="M53.928 32.8L52.5066 32.2666C52.4404 32.2407 52.3803 32.2013 52.3302 32.1507C52.2802 32.1002 52.2412 32.0398 52.216 31.9733L51.6826 30.5546C51.6545 30.4802 51.6043 30.416 51.5388 30.3708C51.4733 30.3255 51.3956 30.3013 51.316 30.3013C51.2363 30.3013 51.1586 30.3255 51.0931 30.3708C51.0276 30.416 50.9775 30.4802 50.9493 30.5546L50.416 31.9733C50.3907 32.0398 50.3518 32.1002 50.3017 32.1507C50.2516 32.2013 50.1915 32.2407 50.1253 32.2666L48.704 32.8C48.6297 32.8287 48.5659 32.8793 48.521 32.9449C48.476 33.0106 48.4519 33.0884 48.4519 33.168C48.4519 33.2476 48.476 33.3253 48.521 33.391C48.5659 33.4567 48.6297 33.5072 48.704 33.536L50.1253 34.0693C50.1912 34.095 50.251 34.1342 50.3011 34.1842C50.3511 34.2342 50.3902 34.2941 50.416 34.36L50.9493 35.7813C50.9775 35.8558 51.0276 35.9199 51.0931 35.9652C51.1586 36.0104 51.2363 36.0347 51.316 36.0347C51.3956 36.0347 51.4733 36.0104 51.5388 35.9652C51.6043 35.9199 51.6545 35.8558 51.6826 35.7813L52.216 34.36C52.2417 34.2941 52.2808 34.2342 52.3308 34.1842C52.3809 34.1342 52.4407 34.095 52.5066 34.0693L53.928 33.536C54.0022 33.5072 54.066 33.4567 54.111 33.391C54.1559 33.3253 54.18 33.2476 54.18 33.168C54.18 33.0884 54.1559 33.0106 54.111 32.9449C54.066 32.8793 54.0022 32.8287 53.928 32.8ZM91.7466 73.8666L90.3253 73.3333C90.2594 73.3076 90.1995 73.2684 90.1495 73.2184C90.0995 73.1684 90.0604 73.1085 90.0346 73.0426L89.5013 71.6213C89.4725 71.5471 89.422 71.4833 89.3563 71.4383C89.2906 71.3933 89.2129 71.3692 89.1333 71.3692C89.0537 71.3692 88.9759 71.3933 88.9103 71.4383C88.8446 71.4833 88.7941 71.5471 88.7653 71.6213L88.232 73.0426C88.2062 73.1085 88.1671 73.1684 88.1171 73.2184C88.067 73.2684 88.0072 73.3076 87.9413 73.3333L86.52 73.8666C86.4457 73.8954 86.3819 73.9459 86.337 74.0116C86.292 74.0773 86.2679 74.155 86.2679 74.2346C86.2679 74.3142 86.292 74.392 86.337 74.4577C86.3819 74.5233 86.4457 74.5739 86.52 74.6026L87.9413 75.136C88.0075 75.1613 88.0675 75.2002 88.1176 75.2503C88.1677 75.3004 88.2067 75.3605 88.232 75.4266L88.7653 76.8453C88.7941 76.9195 88.8446 76.9833 88.9103 77.0283C88.9759 77.0733 89.0537 77.0974 89.1333 77.0974C89.2129 77.0974 89.2906 77.0733 89.3563 77.0283C89.422 76.9833 89.4725 76.9195 89.5013 76.8453L90.0346 75.4266C90.0599 75.3605 90.0989 75.3004 90.149 75.2503C90.1991 75.2002 90.2591 75.1613 90.3253 75.136L91.7466 74.6026C91.8209 74.5739 91.8846 74.5233 91.9296 74.4577C91.9746 74.392 91.9987 74.3142 91.9987 74.2346C91.9987 74.155 91.9746 74.0773 91.9296 74.0116C91.8846 73.9459 91.8209 73.8954 91.7466 73.8666Z" fill="#FFB492"/>
<path d="M80.1067 70.8213C80.3378 70.421 80.4794 69.9753 80.5217 69.5149C80.5641 69.0546 80.5062 68.5905 80.352 68.1547C80.0586 67.3516 79.4589 66.6975 78.6842 66.3356C77.9095 65.9738 77.0229 65.9336 76.2187 66.224H76.2027L73.112 67.376C73.1499 66.7434 72.9958 66.1142 72.6698 65.5708C72.3439 65.0273 71.8613 64.5951 71.2854 64.3307C70.5045 63.968 69.6118 63.9297 68.8027 64.224L63.0427 66.3733C63.0553 65.9899 62.9965 65.6074 62.8694 65.2453C62.7368 64.8694 62.5308 64.5235 62.2635 64.2278C61.9962 63.9321 61.6727 63.6924 61.312 63.5227C60.9395 63.3453 60.5353 63.2443 60.1231 63.2255C59.7109 63.2067 59.2992 63.2706 58.912 63.4133L48.376 67.32C47.9707 67.1707 47.5947 67.016 47.2294 66.864C45.8833 66.2224 44.4118 65.887 42.9207 65.8819C41.4295 65.8768 39.9558 66.2022 38.6054 66.8347C38.4957 66.2582 38.1887 65.7379 37.7371 65.3632C37.2855 64.9885 36.7175 64.7828 36.1307 64.7813H31.184C30.5154 64.7828 29.8746 65.049 29.4018 65.5218C28.929 65.9946 28.6628 66.6354 28.6614 67.304V72.0827C28.6742 72.3247 28.7794 72.5526 28.9553 72.7194C29.1312 72.8862 29.3643 72.9791 29.6067 72.9791C29.8491 72.9791 30.0822 72.8862 30.2581 72.7194C30.434 72.5526 30.5392 72.3247 30.552 72.0827V67.304C30.552 67.1364 30.6186 66.9756 30.7372 66.8571C30.8557 66.7386 31.0164 66.672 31.184 66.672H36.1307C36.2977 66.6741 36.4572 66.7413 36.5753 66.8594C36.6934 66.9775 36.7606 67.137 36.7627 67.304V81.7627C36.7607 81.9299 36.6935 82.0897 36.5755 82.2082C36.4575 82.3267 36.2979 82.3946 36.1307 82.3973H31.184C31.0162 82.3966 30.8554 82.3295 30.737 82.2105C30.6185 82.0916 30.552 81.9305 30.552 81.7627V71.0693C30.5392 70.8273 30.434 70.5994 30.2581 70.4326C30.0822 70.2659 29.8491 70.1729 29.6067 70.1729C29.3643 70.1729 29.1312 70.2659 28.9553 70.4326C28.7794 70.5994 28.6742 70.8273 28.6614 71.0693V81.7627C28.6621 82.4315 28.9281 83.0728 29.401 83.5457C29.874 84.0186 30.5152 84.2846 31.184 84.2853H36.1307C36.6884 84.284 37.23 84.098 37.6709 83.7565C38.1118 83.4149 38.4273 82.937 38.568 82.3973C41.1109 82.4531 43.6297 82.9029 46.0347 83.7307L51.704 85.4267C52.9683 85.7582 54.2718 85.9161 55.5787 85.896C56.9516 85.9172 58.3206 85.7449 59.6454 85.384C62.5494 84.4853 67.1707 82.7173 69 81.9813L80.3067 77.3813C80.7239 77.2063 81.0972 76.9413 81.4001 76.6052C81.7029 76.2692 81.9278 75.8704 82.0587 75.4373C82.2274 74.8948 82.2792 74.3227 82.2107 73.7588C82.1422 73.1948 81.955 72.6517 81.6614 72.1653C81.2954 71.5722 80.7553 71.1066 80.1147 70.832L80.1067 70.8213ZM71.3814 70.0453C71.4242 70.0321 71.466 70.0161 71.5067 69.9973L76.856 68C77.0203 67.9385 77.195 67.91 77.3703 67.9161C77.5455 67.9223 77.7178 67.9629 77.8774 68.0357C78.0369 68.1086 78.1805 68.2122 78.2999 68.3406C78.4193 68.4689 78.5123 68.6196 78.5734 68.784C78.6886 69.1118 78.6691 69.472 78.5192 69.7855C78.3692 70.0989 78.101 70.3401 77.7734 70.456L64.1734 75.5227C64.1734 75.2239 64.1403 74.9261 64.0747 74.6347C63.9506 74.0564 63.6951 73.5144 63.328 73.0507L71.3814 70.0453ZM69.4427 66.0053C69.7834 65.8825 70.1585 65.8978 70.488 66.048C70.6432 66.1201 70.7824 66.2223 70.8978 66.3487C71.0131 66.475 71.1023 66.623 71.16 66.784C71.2514 67.0514 71.2554 67.3409 71.1715 67.6108C71.0877 67.8806 70.9202 68.1168 70.6934 68.2853L61.3067 71.784L57.4827 70.4667L69.4427 66.0053ZM59.5467 65.2053C59.6983 65.1488 59.8597 65.1231 60.0214 65.13C60.1831 65.1369 60.3418 65.1761 60.488 65.2453C60.6926 65.346 60.8629 65.5048 60.9778 65.7017C61.0926 65.8986 61.1469 66.1251 61.1338 66.3527C61.1207 66.5803 61.0409 66.799 60.9042 66.9815C60.7675 67.1639 60.5801 67.3021 60.3654 67.3787L60.304 67.4053L54.6667 69.496L51.2 68.2933L59.5467 65.2053ZM80.2667 74.856C80.2194 75.0267 80.1348 75.1849 80.0191 75.3191C79.9033 75.4532 79.7593 75.5601 79.5974 75.632L68.2934 80.2347C66.4907 80.9653 61.9414 82.7013 59.0907 83.5813C56.8471 84.1456 54.5003 84.1584 52.2507 83.6187L46.5814 81.9227C44.0296 81.0514 41.3597 80.5748 38.664 80.5093V68.8187C43.176 67.2187 44.5307 67.776 46.5147 68.608C47 68.808 61.024 73.6747 61.024 73.6747H61.056C61.3537 73.7766 61.6189 73.9557 61.8246 74.1937C62.0303 74.4317 62.169 74.7201 62.2267 75.0293C62.3475 75.5414 62.2714 76.0802 62.0134 76.5387C61.9252 76.6911 61.8136 76.8288 61.6827 76.9467C61.1627 77.279 60.5658 77.4715 59.9496 77.5056C59.3334 77.5397 58.7189 77.4142 58.1654 77.1413L50.1894 74.5093C49.9514 74.4308 49.692 74.4501 49.4682 74.5629C49.2444 74.6756 49.0745 74.8727 48.996 75.1107C48.9175 75.3487 48.9368 75.6081 49.0496 75.8319C49.1623 76.0557 49.3594 76.2255 49.5974 76.304L57.5734 78.9333C58.3624 79.2099 59.1908 79.3576 60.0267 79.3707C61.0991 79.4144 62.1479 79.0483 62.96 78.3467C63.148 78.1771 63.317 77.9875 63.464 77.7813L77.3307 72.624H77.368C77.8103 72.3823 78.3234 72.3033 78.8179 72.4007C79.3125 72.4982 79.7572 72.7659 80.0747 73.1573C80.2244 73.4104 80.3201 73.6917 80.3559 73.9836C80.3917 74.2755 80.3668 74.5716 80.2827 74.8533L80.2667 74.856Z" fill="black"/>
<path d="M41.3334 53.9519C41.3313 56.0642 42.0546 58.113 43.3824 59.7558C44.7101 61.3985 46.5617 62.5355 48.6274 62.9765C50.693 63.4175 52.8475 63.1357 54.7303 62.1784C56.6131 61.2211 58.1101 59.6462 58.9707 57.7173H59C59.9566 57.5845 60.9199 57.5071 61.8854 57.4853C62.7964 57.5219 63.7046 57.6109 64.6054 57.7519C66.4434 58.0215 68.2972 58.1684 70.1547 58.1919C71.3368 58.1949 72.5175 58.1138 73.688 57.9493C75.8059 57.4848 77.8487 56.7273 79.7574 55.6986C80.7254 55.2373 81.6534 54.7973 82.4507 54.4933C82.4521 54.8993 82.6142 55.2882 82.9015 55.575C83.1889 55.8618 83.5781 56.0232 83.984 56.0239H89.5387C89.9445 56.0232 90.3334 55.8617 90.6203 55.5748C90.9072 55.2879 91.0687 54.899 91.0694 54.4933V37.8266C91.0687 37.4206 90.9073 37.0314 90.6204 36.7441C90.3336 36.4568 89.9447 36.2947 89.5387 36.2933H84C83.5936 36.294 83.204 36.4558 82.9166 36.7432C82.6292 37.0306 82.4674 37.4202 82.4667 37.8266V37.9653C81.32 37.7306 79.784 37.2986 78.048 36.8079C73.5147 35.5359 67.9014 33.9493 64.2347 34.4719C59.0107 35.2186 54.656 39.3999 49.5227 44.7946C47.2722 45.051 45.1944 46.1256 43.6845 47.814C42.1745 49.5024 41.3378 51.6869 41.3334 53.9519ZM83.808 54.4853V37.8266C83.8075 37.802 83.8123 37.7775 83.822 37.7548C83.8316 37.7322 83.846 37.7118 83.8642 37.6952C83.8824 37.6785 83.9039 37.6659 83.9273 37.6582C83.9507 37.6506 83.9755 37.648 84 37.6506H89.5547C89.6014 37.6506 89.6462 37.6692 89.6792 37.7022C89.7122 37.7352 89.7307 37.7799 89.7307 37.8266V54.4879C89.73 54.5344 89.7113 54.5788 89.6784 54.6116C89.6455 54.6445 89.6012 54.6633 89.5547 54.6639H84C83.9531 54.6639 83.9081 54.6455 83.8746 54.6126C83.8412 54.5796 83.8221 54.5349 83.8214 54.4879L83.808 54.4853ZM58.8134 56.1253C57.5043 56.3459 56.1718 56.3916 54.8507 56.2613C54.2774 56.1653 54.032 55.5199 54 54.9946C53.977 54.3611 54.1732 53.739 54.5555 53.2332C54.9378 52.7275 55.4829 52.3692 56.0987 52.2186C56.7867 52.0133 57.7787 51.8346 58.9254 51.6266C62.336 51.0106 66.5787 50.2453 68.112 47.8293C68.4053 47.3638 68.5947 46.8406 68.6674 46.2952C68.7402 45.7499 68.6944 45.1953 68.5334 44.6693C68.431 44.2108 68.2167 43.7848 67.9096 43.4293C67.6025 43.0738 67.2121 42.7999 66.7734 42.6319C64.1734 41.6453 59.4987 44.1039 55.8987 46.4479C54.6556 45.5615 53.213 44.9954 51.6987 44.7999C56.8694 39.4666 60.3974 36.6186 64.44 36.0399C68.9224 36.0524 73.37 36.828 77.592 38.3333C79.5094 38.8666 81.1974 39.3493 82.4454 39.5786V52.7999C81.2905 53.2179 80.1614 53.7041 79.064 54.2559C77.3011 55.2092 75.4174 55.9197 73.464 56.3679C70.5836 56.7083 67.6697 56.641 64.808 56.1679C63.8365 56.02 62.857 55.931 61.8747 55.9013C60.8516 55.9174 59.8303 55.9931 58.816 56.1279L58.8134 56.1253ZM66.1947 44.1253C66.3971 44.2025 66.5759 44.3311 66.7134 44.4985C66.8509 44.666 66.9424 44.8664 66.9787 45.0799C67.0827 45.3925 67.1176 45.724 67.0807 46.0514C67.0439 46.3788 66.9363 46.6943 66.7654 46.9759C65.64 48.7519 61.8054 49.4853 58.8907 50.0133C58.4533 49.0948 57.8656 48.2557 57.152 47.5306C61.376 44.8373 64.7254 43.5653 66.1974 44.1253H66.1947ZM42.6907 53.9546C42.6909 52.1994 43.2782 50.4948 44.3591 49.112C45.4401 47.7292 46.9526 46.7478 48.6558 46.3239C50.359 45.9001 52.1551 46.0583 53.7581 46.7732C55.361 47.4882 56.6787 48.7189 57.5014 50.2693C56.7894 50.4053 56.1547 50.5359 55.6347 50.6933C54.6709 50.9437 53.823 51.519 53.2342 52.3221C52.6454 53.1251 52.3517 54.1068 52.4027 55.1013C52.3927 55.7399 52.6051 56.3621 53.0036 56.8613C53.402 57.3605 53.9617 57.7055 54.5867 57.8373C55.5067 57.9659 56.4389 57.982 57.3627 57.8853C56.4942 59.3785 55.1583 60.5443 53.5612 61.2028C51.9642 61.8613 50.1948 61.9757 48.5263 61.5286C46.8577 61.0814 45.3827 60.0974 44.329 58.7286C43.2753 57.3597 42.7014 55.6821 42.696 53.9546H42.6907Z" fill="black"/>
<path d="M50.5573 63.4399C48.13 63.4601 45.7874 62.549 44.0117 60.8941C42.2359 59.2392 41.1622 56.9665 41.0115 54.5438C40.8608 52.1211 41.6446 49.7329 43.2016 47.8707C44.7586 46.0085 46.9703 44.8141 49.3813 44.5333C54.5173 39.1466 58.88 34.9653 64.184 34.208C67.9173 33.6746 73.5626 35.2746 78.1013 36.5493C79.7013 37 81.0986 37.3946 82.1973 37.6373C82.2449 37.1932 82.4556 36.7826 82.7886 36.485C83.1217 36.1874 83.5534 36.0241 84 36.0266H89.5546C90.0316 36.0273 90.4887 36.2173 90.8257 36.5548C91.1627 36.8923 91.352 37.3497 91.352 37.8266V54.4879C91.3513 54.9644 91.1617 55.4212 90.8248 55.7581C90.4879 56.095 90.0311 56.2846 89.5546 56.2853H84C83.5877 56.2846 83.1881 56.1426 82.8678 55.883C82.5476 55.6234 82.326 55.2618 82.24 54.8586C81.512 55.1546 80.6906 55.5466 79.888 55.9253C77.9602 56.967 75.8955 57.7327 73.7546 58.1999C72.5718 58.3669 71.3785 58.4489 70.184 58.4453C68.3168 58.4204 66.4533 58.2735 64.6053 58.0053C63.7144 57.864 62.816 57.775 61.9146 57.7386C60.9993 57.7573 60.0858 57.8285 59.1786 57.952C58.4136 59.5929 57.1957 60.9812 55.6684 61.9534C54.1411 62.9256 52.3678 63.4414 50.5573 63.4399ZM49.528 44.8L49.544 45.0506C47.9867 45.2283 46.5034 45.8117 45.2423 46.7426C43.9813 47.6734 42.9867 48.9191 42.3582 50.3549C41.7296 51.7907 41.489 53.3664 41.6605 54.9244C41.832 56.4824 42.4096 57.968 43.3354 59.2327C44.2613 60.4975 45.5029 61.4969 46.9362 62.1312C48.3696 62.7655 49.9443 63.0123 51.5029 62.847C53.0616 62.6817 54.5495 62.11 55.8179 61.1892C57.0863 60.2684 58.0907 59.0307 58.7306 57.6L58.7893 57.4666L58.936 57.4453C59.9146 57.31 60.9003 57.2307 61.888 57.208C62.8052 57.2439 63.7197 57.3329 64.6266 57.4746C66.4585 57.7429 68.3061 57.8898 70.1573 57.9146C71.3277 57.9172 72.4969 57.837 73.656 57.6746C75.7456 57.2124 77.7612 56.4631 79.6453 55.448C80.576 55.0053 81.5413 54.5466 82.36 54.2346L82.72 54.096V54.4826C82.7196 54.6492 82.7521 54.8142 82.8156 54.9682C82.8791 55.1222 82.9724 55.2621 83.09 55.38C83.2077 55.4979 83.3474 55.5915 83.5013 55.6553C83.6551 55.7191 83.8201 55.7519 83.9866 55.7519H89.5413C89.8765 55.7519 90.198 55.6188 90.4351 55.3817C90.6721 55.1447 90.8053 54.8232 90.8053 54.4879V37.8266C90.8053 37.4911 90.6722 37.1694 90.4353 36.9319C90.1983 36.6944 89.8768 36.5607 89.5413 36.56H84C83.8336 36.56 83.6689 36.5927 83.5152 36.6564C83.3616 36.72 83.2219 36.8133 83.1043 36.9309C82.9867 37.0486 82.8934 37.1882 82.8297 37.3419C82.7661 37.4956 82.7333 37.6603 82.7333 37.8266V38.2906L82.4 38.2266C81.2373 37.9893 79.7173 37.56 77.96 37.0666C73.4586 35.8 67.8746 34.2186 64.2533 34.736C59.1013 35.4666 54.7946 39.6266 49.7013 44.9786L49.528 44.8ZM50.5573 62.0773C48.4002 62.0773 46.3315 61.2204 44.8062 59.6951C43.2809 58.1698 42.424 56.101 42.424 53.944C42.424 51.7869 43.2809 49.7181 44.8062 48.1928C46.3315 46.6675 48.4002 45.8106 50.5573 45.8106C52.0316 45.8228 53.4755 46.2303 54.7387 46.9906C56.0018 47.7509 57.0378 48.8362 57.7386 50.1333L57.9066 50.4533L57.552 50.52C56.9493 50.6346 56.2613 50.7866 55.7146 50.9386C54.8094 51.1721 54.0125 51.7109 53.4586 52.464C52.9048 53.2171 52.6278 54.1383 52.6746 55.072C52.6618 55.6503 52.8502 56.2151 53.2077 56.6699C53.5652 57.1247 54.0696 57.4412 54.6346 57.5653C55.5335 57.6903 56.4443 57.7047 57.3466 57.6079L57.8533 57.568L57.5866 58.0079C56.8728 59.2422 55.8484 60.2682 54.6153 60.984C53.3821 61.6997 51.9831 62.0803 50.5573 62.0879V62.0773ZM50.5573 46.344C49.2445 46.3429 47.9539 46.6819 46.8111 47.328C45.6683 47.974 44.7124 48.9051 44.0364 50.0304C43.3604 51.1557 42.9874 52.437 42.9538 53.7493C42.9201 55.0616 43.227 56.3603 43.8445 57.5188C44.462 58.6772 45.369 59.656 46.4772 60.3597C47.5855 61.0634 48.857 61.4681 50.1681 61.5343C51.4792 61.6005 52.7851 61.3259 53.9585 60.7374C55.132 60.1488 56.133 59.2664 56.864 58.1759C56.0907 58.2328 55.3136 58.2042 54.5466 58.0906C53.862 57.9499 53.2479 57.575 52.8098 57.0304C52.3718 56.4857 52.1373 55.8055 52.1466 55.1066C52.0893 54.0523 52.3984 53.0105 53.0215 52.158C53.6446 51.3056 54.5433 50.6948 55.5653 50.4293C56.024 50.2906 56.5733 50.1626 57.0906 50.0666C56.4091 48.9416 55.4509 48.0098 54.3072 47.3601C53.1636 46.7103 51.8726 46.3642 50.5573 46.3546V46.344ZM70.1333 56.8533C68.3391 56.8278 66.5485 56.6835 64.7733 56.4213C63.8159 56.2751 62.8506 56.1861 61.8826 56.1546C60.8655 56.1762 59.8505 56.2564 58.8426 56.3946L58.8106 56.128L58.8373 56.3946C57.5055 56.6214 56.1491 56.6663 54.8053 56.528C54.4841 56.4322 54.2044 56.2314 54.011 55.9577C53.8176 55.684 53.7217 55.3533 53.7386 55.0186C53.7097 54.325 53.9214 53.6426 54.3379 53.0872C54.7544 52.5317 55.35 52.1373 56.024 51.9706C56.9624 51.7221 57.913 51.5219 58.872 51.3706C62.248 50.76 66.4213 50.008 67.8933 47.6933C68.1637 47.2563 68.337 46.7664 68.4014 46.2566C68.4658 45.7468 68.4199 45.2291 68.2666 44.7386C68.1744 44.3197 67.9801 43.9301 67.7009 43.6045C67.4218 43.2788 67.0665 43.0272 66.6666 42.872C64.672 42.1253 61 43.4266 56.0293 46.664L55.8773 46.7626L55.7333 46.6666C54.5349 45.8173 53.1471 45.2735 51.6906 45.0826L51.6133 45.0666L51.6773 44.784L51.5173 44.6293C56.4933 39.488 60.1973 36.3946 64.4106 35.7919C68.9251 35.7975 73.4055 36.574 77.6586 38.088C79.5973 38.6346 81.2586 39.104 82.504 39.3333L82.72 39.3733V52.9733L82.5386 53.0346C81.4019 53.4443 80.2913 53.9234 79.2133 54.4693C77.4148 55.4359 75.4932 56.1536 73.5013 56.6026C72.386 56.7662 71.2605 56.8499 70.1333 56.8533ZM61.8826 55.6186C62.8729 55.6479 63.8605 55.7369 64.84 55.8853C67.6777 56.3544 70.5674 56.4217 73.424 56.0853C75.3522 55.6411 77.2116 54.9388 78.952 53.9973C80.0031 53.4699 81.082 52.9999 82.184 52.5893V39.8133C80.944 39.5679 79.3493 39.1173 77.5226 38.6026C73.3358 37.108 68.9256 36.3352 64.48 36.3173C60.5173 36.8826 56.968 39.7839 52.2506 44.6293C53.5558 44.8733 54.7962 45.3854 55.8933 46.1333C61.0053 42.8293 64.6933 41.5706 66.856 42.4C67.3347 42.582 67.761 42.8796 68.0969 43.2662C68.4328 43.6528 68.6679 44.1165 68.7813 44.6159C68.9546 45.1772 69.0052 45.769 68.9297 46.3515C68.8543 46.934 68.6545 47.4934 68.344 47.992C66.744 50.504 62.4453 51.28 58.9893 51.9066C57.832 52.1146 56.856 52.2906 56.1786 52.4933C55.6207 52.6269 55.1259 52.949 54.7781 53.4053C54.4302 53.8615 54.2505 54.4239 54.2693 54.9973C54.2906 55.3413 54.448 55.9413 54.8986 56.0159C56.1923 56.142 57.497 56.0962 58.7786 55.8799L58.816 56.1466L58.7866 55.8799C59.8144 55.7325 60.85 55.6453 61.888 55.6186H61.8826ZM89.536 54.9306H84C83.9418 54.9306 83.8843 54.9192 83.8306 54.8969C83.7769 54.8747 83.7281 54.8421 83.687 54.801C83.6459 54.7599 83.6132 54.7111 83.591 54.6574C83.5688 54.6036 83.5573 54.5461 83.5573 54.4879V37.8266C83.557 37.7683 83.5681 37.7104 83.5902 37.6564C83.6123 37.6024 83.6449 37.5533 83.686 37.5119C83.7272 37.4705 83.7761 37.4376 83.83 37.4152C83.8838 37.3928 83.9416 37.3813 84 37.3813H89.5546C89.6128 37.3816 89.6703 37.3934 89.7238 37.416C89.7774 37.4386 89.826 37.4715 89.8669 37.5128C89.9077 37.5542 89.94 37.6032 89.962 37.657C89.9839 37.7109 89.995 37.7685 89.9946 37.8266V54.4879C89.9954 54.5473 89.9841 54.6062 89.9615 54.6611C89.9389 54.716 89.9054 54.7658 89.863 54.8074C89.8207 54.849 89.7703 54.8816 89.715 54.9032C89.6597 54.9249 89.6007 54.9351 89.5413 54.9333L89.536 54.9306ZM84.0693 54.3973H89.4453V37.9173H84.0746L84.0693 54.3973ZM58.736 50.3093L58.6666 50.1333C58.2414 49.2443 57.6699 48.433 56.976 47.7333L56.7466 47.4986L57.0133 47.3226C61.3546 44.5493 64.7466 43.2986 66.2933 43.8906C66.5348 43.984 66.7487 44.1373 66.9147 44.336C67.0808 44.5347 67.1936 44.7723 67.2426 45.0266C67.3571 45.3751 67.3943 45.7444 67.3514 46.1087C67.3086 46.473 67.1868 46.8235 66.9946 47.136C65.7786 49.0533 61.6613 49.8026 58.944 50.2906L58.736 50.3093ZM57.5653 47.584C58.1531 48.2235 58.6494 48.9414 59.04 49.7173C61.6666 49.24 65.472 48.5146 66.5386 46.8373C66.6881 46.5858 66.7815 46.3051 66.8123 46.0142C66.8432 45.7233 66.8108 45.4291 66.7173 45.152C66.6911 44.9798 66.6202 44.8175 66.5117 44.6813C66.4031 44.5451 66.2607 44.4398 66.0986 44.3759C64.7413 43.8666 61.5733 45.0666 57.5706 47.584H57.5653Z" fill="black"/>
</svg>
