<svg width="162" height="46" viewBox="0 0 162 46" fill="none" xmlns="http://www.w3.org/2000/svg">
<path d="M156 46H6C2.7015 46 0 43.4111 0 40.25V5.75C0 2.58894 2.7015 9.53674e-07 6 9.53674e-07H156C159.299 9.53674e-07 162 2.58894 162 5.75V40.25C162 43.4111 159.299 46 156 46Z" fill="#020617"/>
<path d="M23.4664 10.9526C23.171 11.249 23 11.7105 23 12.3081V33.6244C23 34.222 23.171 34.6835 23.4664 34.9799L23.5394 35.0449L36.0036 23.1048V22.8229L23.5394 10.8827L23.4664 10.9526Z" fill="url(#paint0_linear_6261_30825)"/>
<path d="M40.1538 27.0869L36.0036 23.1049V22.8229L40.1588 18.8409L40.2518 18.8927L45.1727 21.5759C46.577 22.3374 46.577 23.5904 45.1727 24.3567L40.2518 27.0351L40.1538 27.0869Z" fill="url(#paint1_linear_6261_30825)"/>
<path d="M40.2518 27.0355L36.0036 22.9643L23.4664 34.9803C23.9328 35.4502 24.6935 35.5068 25.5585 35.0369L40.2518 27.0355Z" fill="url(#paint2_linear_6261_30825)"/>
<path d="M40.2518 18.8927L25.5585 10.8912C24.6935 10.4261 23.9328 10.4828 23.4664 10.9527L36.0036 22.9639L40.2518 18.8927Z" fill="url(#paint3_linear_6261_30825)"/>
<path d="M82.6728 25.4027C80.3802 25.4027 78.5074 27.0748 78.5074 29.3817C78.5074 31.67 80.3802 33.3595 82.6728 33.3595C84.9703 33.3595 86.8431 31.67 86.8431 29.3817C86.8431 27.0748 84.9703 25.4027 82.6728 25.4027ZM82.6728 31.7927C81.4149 31.7927 80.3327 30.7977 80.3327 29.3817C80.3327 27.947 81.4149 26.9695 82.6728 26.9695C83.9307 26.9695 85.0178 27.947 85.0178 29.3817C85.0178 30.7977 83.9307 31.7927 82.6728 31.7927ZM73.5843 25.4027C71.2868 25.4027 69.4189 27.0748 69.4189 29.3817C69.4189 31.67 71.2868 33.3595 73.5843 33.3595C75.8805 33.3595 77.7497 31.67 77.7497 29.3817C77.7497 27.0748 75.8805 25.4027 73.5843 25.4027ZM73.5843 31.7927C72.3251 31.7927 71.2393 30.7977 71.2393 29.3817C71.2393 27.947 72.3251 26.9695 73.5843 26.9695C74.8422 26.9695 75.9244 27.947 75.9244 29.3817C75.9244 30.7977 74.8422 31.7927 73.5843 31.7927ZM62.7693 26.6223V28.313H66.9823C66.8591 29.2578 66.5297 29.9523 66.0246 30.4364C65.4096 31.021 64.4518 31.67 62.7693 31.67C60.1766 31.67 58.1464 29.6647 58.1464 27.18C58.1464 24.6953 60.1766 22.69 62.7693 22.69C64.1712 22.69 65.1912 23.215 65.944 23.8955L67.1873 22.7041C66.1344 21.7406 64.7337 21.0004 62.7693 21.0004C59.214 21.0004 56.2259 23.7728 56.2259 27.18C56.2259 30.5872 59.214 33.3595 62.7693 33.3595C64.691 33.3595 66.1344 32.7562 67.2691 31.6244C68.4318 30.5101 68.7942 28.9432 68.7942 27.6781C68.7942 27.2852 68.76 26.9239 68.699 26.6223H62.7693ZM106.993 27.933C106.65 27.0432 105.592 25.4027 103.438 25.4027C101.303 25.4027 99.5248 27.0151 99.5248 29.3817C99.5248 31.6103 101.284 33.3595 103.643 33.3595C105.55 33.3595 106.65 32.2452 107.103 31.5963L105.688 30.6925C105.215 31.3543 104.572 31.7927 103.643 31.7927C102.719 31.7927 102.057 31.387 101.632 30.5872L107.185 28.3855L106.993 27.933ZM101.332 29.2578C101.284 27.7237 102.575 26.938 103.5 26.938C104.225 26.938 104.84 27.2852 105.045 27.7822L101.332 29.2578ZM96.8186 33.1175H98.6439V21.4249H96.8186V33.1175ZM93.8294 26.289H93.7684C93.3584 25.8237 92.5764 25.4027 91.5856 25.4027C89.5066 25.4027 87.6057 27.1519 87.6057 29.3946C87.6057 31.6244 89.5066 33.3595 91.5856 33.3595C92.5764 33.3595 93.3584 32.9351 93.7684 32.4557H93.8294V33.0263C93.8294 34.5475 92.9814 35.3648 91.6137 35.3648C90.4985 35.3648 89.8067 34.5931 89.5212 33.9442L87.9339 34.5791C88.3914 35.6338 89.603 36.9316 91.6137 36.9316C93.7538 36.9316 95.5595 35.725 95.5595 32.7889V25.6448H93.8294V26.289ZM91.7418 31.7927C90.4839 31.7927 89.4309 30.7837 89.4309 29.3946C89.4309 27.9926 90.4839 26.9695 91.7418 26.9695C92.9814 26.9695 93.9587 27.9926 93.9587 29.3946C93.9587 30.7837 92.9814 31.7927 91.7418 31.7927ZM115.539 21.4249H111.173V33.1175H112.994V28.6872H115.539C117.56 28.6872 119.543 27.2852 119.543 25.0554C119.543 22.8268 117.555 21.4249 115.539 21.4249ZM115.586 27.0607H112.994V23.0513H115.586C116.945 23.0513 117.721 24.1329 117.721 25.0554C117.721 25.9605 116.945 27.0607 115.586 27.0607ZM126.839 25.3805C125.524 25.3805 124.156 25.9371 123.594 27.1706L125.209 27.8196C125.557 27.1706 126.196 26.9602 126.872 26.9602C127.816 26.9602 128.774 27.5039 128.789 28.4638V28.5866C128.459 28.4042 127.754 28.1341 126.887 28.1341C125.147 28.1341 123.374 29.052 123.374 30.765C123.374 32.3318 124.799 33.3408 126.401 33.3408C127.626 33.3408 128.302 32.8112 128.727 32.195H128.789V33.0988H130.547V28.6135C130.547 26.5404 128.932 25.3805 126.839 25.3805ZM126.62 31.7881C126.024 31.7881 125.194 31.5051 125.194 30.7977C125.194 29.8927 126.229 29.5454 127.125 29.5454C127.926 29.5454 128.302 29.715 128.789 29.9383C128.646 31.021 127.674 31.7881 126.62 31.7881ZM136.953 25.6366L134.86 30.7053H134.798L132.635 25.6366H130.672L133.922 32.72L132.067 36.6615H133.969L138.978 25.6366H136.953ZM120.543 33.1175H122.369V21.4249H120.543V33.1175Z" fill="white"/>
<path d="M62.9593 12.3623C62.9593 13.1663 62.8096 13.8385 62.5101 14.3789C62.2106 14.916 61.7761 15.3213 61.2064 15.5947C60.6367 15.8649 59.9499 16 59.1459 16H57.1634V8.86133H59.3607C60.0996 8.86133 60.7377 8.99479 61.2748 9.26172C61.8119 9.52539 62.2269 9.91764 62.5199 10.4385C62.8129 10.9561 62.9593 11.5973 62.9593 12.3623ZM61.7386 12.3965C61.7386 11.8105 61.6459 11.3288 61.4603 10.9512C61.278 10.5736 61.0078 10.2936 60.6498 10.1113C60.2949 9.92578 59.8571 9.83301 59.3363 9.83301H58.3353V15.0186H59.1654C60.028 15.0186 60.6726 14.7988 61.099 14.3594C61.5254 13.9199 61.7386 13.2656 61.7386 12.3965ZM65.5277 10.5947V16H64.3802V10.5947H65.5277ZM64.9613 8.52441C65.1371 8.52441 65.2884 8.57161 65.4154 8.66602C65.5456 8.76042 65.6107 8.92318 65.6107 9.1543C65.6107 9.38216 65.5456 9.54492 65.4154 9.64258C65.2884 9.73698 65.1371 9.78418 64.9613 9.78418C64.779 9.78418 64.6244 9.73698 64.4974 9.64258C64.3737 9.54492 64.3119 9.38216 64.3119 9.1543C64.3119 8.92318 64.3737 8.76042 64.4974 8.66602C64.6244 8.57161 64.779 8.52441 64.9613 8.52441ZM70.806 14.457C70.806 14.8118 70.7198 15.1113 70.5472 15.3555C70.3747 15.5996 70.1224 15.7852 69.7904 15.9121C69.4616 16.0358 69.058 16.0977 68.5795 16.0977C68.2018 16.0977 67.8763 16.07 67.6029 16.0146C67.3327 15.9626 67.0772 15.8812 66.8363 15.7705V14.7793C67.0934 14.8997 67.3815 15.0039 67.7005 15.0918C68.0228 15.1797 68.3272 15.2236 68.6136 15.2236C68.9912 15.2236 69.263 15.165 69.4291 15.0479C69.5951 14.9274 69.6781 14.7679 69.6781 14.5693C69.6781 14.4521 69.6439 14.348 69.5755 14.2568C69.5104 14.1624 69.3867 14.0664 69.2045 13.9688C69.0254 13.8678 68.7617 13.7474 68.4134 13.6074C68.0716 13.4707 67.7836 13.334 67.5492 13.1973C67.3148 13.0605 67.1374 12.8962 67.017 12.7041C66.8965 12.5088 66.8363 12.2598 66.8363 11.957C66.8363 11.4785 67.0251 11.1156 67.4027 10.8682C67.7836 10.6175 68.2865 10.4922 68.9115 10.4922C69.2435 10.4922 69.556 10.5264 69.849 10.5947C70.1452 10.6598 70.4349 10.7559 70.7181 10.8828L70.3568 11.7471C70.1127 11.6396 69.8669 11.5518 69.6195 11.4834C69.3754 11.4118 69.1263 11.376 68.8724 11.376C68.5762 11.376 68.35 11.4215 68.1937 11.5127C68.0407 11.6038 67.9642 11.734 67.9642 11.9033C67.9642 12.0303 68.0017 12.1377 68.0765 12.2256C68.1514 12.3135 68.28 12.4014 68.4623 12.4893C68.6478 12.5771 68.905 12.6862 69.2337 12.8164C69.556 12.9401 69.8343 13.0703 70.0687 13.207C70.3063 13.3405 70.4886 13.5049 70.6156 13.7002C70.7425 13.8955 70.806 14.1478 70.806 14.457ZM74.8197 10.4922C75.461 10.4922 75.9753 10.7266 76.3627 11.1953C76.7533 11.6641 76.9486 12.3607 76.9486 13.2852C76.9486 13.8971 76.8574 14.4131 76.6752 14.833C76.4961 15.2497 76.2438 15.5654 75.9183 15.7803C75.5961 15.9919 75.2201 16.0977 74.7904 16.0977C74.517 16.0977 74.2793 16.0618 74.0775 15.9902C73.8757 15.9186 73.7032 15.8258 73.5599 15.7119C73.4167 15.5947 73.2962 15.4678 73.1986 15.3311H73.1302C73.1465 15.4613 73.1612 15.6061 73.1742 15.7656C73.1905 15.9219 73.1986 16.0651 73.1986 16.1953V18.3975H72.0462V10.5947H72.9837L73.1449 11.3418H73.1986C73.2995 11.1888 73.4216 11.0472 73.5648 10.917C73.7113 10.7868 73.8871 10.6842 74.0921 10.6094C74.3005 10.5312 74.543 10.4922 74.8197 10.4922ZM74.5121 11.4297C74.1963 11.4297 73.9424 11.4932 73.7504 11.6201C73.5615 11.7438 73.4232 11.931 73.3353 12.1816C73.2507 12.4323 73.2051 12.7464 73.1986 13.124V13.2852C73.1986 13.6855 73.2393 14.0257 73.3207 14.3057C73.4053 14.5824 73.5436 14.7939 73.7357 14.9404C73.931 15.0837 74.1947 15.1553 74.5267 15.1553C74.8067 15.1553 75.0378 15.0788 75.2201 14.9258C75.4056 14.7728 75.544 14.5547 75.6351 14.2715C75.7263 13.9883 75.7718 13.6546 75.7718 13.2705C75.7718 12.6878 75.6677 12.2354 75.4593 11.9131C75.2543 11.5908 74.9385 11.4297 74.5121 11.4297ZM83.0619 13.2852C83.0619 13.7344 83.0033 14.1331 82.8861 14.4814C82.7689 14.8298 82.598 15.1243 82.3734 15.3652C82.1488 15.6029 81.8786 15.7852 81.5629 15.9121C81.2471 16.0358 80.8907 16.0977 80.4935 16.0977C80.1224 16.0977 79.7823 16.0358 79.473 15.9121C79.1638 15.7852 78.8952 15.6029 78.6673 15.3652C78.4427 15.1243 78.2686 14.8298 78.1449 14.4814C78.0212 14.1331 77.9593 13.7344 77.9593 13.2852C77.9593 12.6895 78.0619 12.1849 78.267 11.7715C78.4753 11.3548 78.7715 11.0374 79.1556 10.8193C79.5397 10.6012 79.9971 10.4922 80.5277 10.4922C81.0257 10.4922 81.4652 10.6012 81.8461 10.8193C82.2269 11.0374 82.5248 11.3548 82.7396 11.7715C82.9545 12.1882 83.0619 12.6927 83.0619 13.2852ZM79.141 13.2852C79.141 13.679 79.1882 14.016 79.2826 14.2959C79.3802 14.5758 79.53 14.7907 79.7318 14.9404C79.9336 15.0869 80.194 15.1602 80.513 15.1602C80.8321 15.1602 81.0925 15.0869 81.2943 14.9404C81.4961 14.7907 81.6442 14.5758 81.7386 14.2959C81.833 14.016 81.8802 13.679 81.8802 13.2852C81.8802 12.8913 81.833 12.5576 81.7386 12.2842C81.6442 12.0075 81.4961 11.7975 81.2943 11.6543C81.0925 11.5078 80.8304 11.4346 80.5082 11.4346C80.0329 11.4346 79.6862 11.5941 79.4681 11.9131C79.25 12.2321 79.141 12.6895 79.141 13.2852ZM87.1976 10.4922C87.8063 10.4922 88.28 10.6501 88.6185 10.9658C88.9603 11.2783 89.1312 11.7812 89.1312 12.4746V16H87.9837V12.6895C87.9837 12.2695 87.8975 11.9554 87.725 11.7471C87.5524 11.5355 87.2855 11.4297 86.9242 11.4297C86.4001 11.4297 86.0355 11.5908 85.8304 11.9131C85.6286 12.2354 85.5277 12.7025 85.5277 13.3145V16H84.3802V10.5947H85.2738L85.4349 11.3271H85.4984C85.6156 11.1383 85.7604 10.9837 85.933 10.8633C86.1087 10.7396 86.3041 10.6468 86.5189 10.585C86.737 10.5231 86.9632 10.4922 87.1976 10.4922ZM91.8851 16H90.7377V10.5947H91.8851V16ZM92.9789 8.33887V8.43652C92.9007 8.53092 92.7949 8.64486 92.6615 8.77832C92.528 8.90853 92.3832 9.04688 92.2269 9.19336C92.0707 9.33659 91.916 9.47493 91.763 9.6084C91.6101 9.73861 91.4717 9.84928 91.348 9.94043H90.5814V9.81348C90.6888 9.68978 90.8076 9.54167 90.9379 9.36914C91.0713 9.19661 91.2015 9.01921 91.3285 8.83691C91.4587 8.65462 91.5677 8.48861 91.6556 8.33887H92.9789ZM94.766 16L92.7103 10.5947H93.9261L95.0394 13.7686C95.111 13.9704 95.1761 14.1885 95.2347 14.4229C95.2933 14.6572 95.334 14.8542 95.3568 15.0137H95.3959C95.4186 14.8477 95.4626 14.6491 95.5277 14.418C95.5928 14.1836 95.6595 13.9671 95.7279 13.7686L96.8412 10.5947H98.0521L95.9964 16H94.766ZM101.026 10.4922C101.508 10.4922 101.921 10.5915 102.266 10.79C102.611 10.9886 102.876 11.2702 103.062 11.6348C103.247 11.9993 103.34 12.4355 103.34 12.9434V13.5586H99.7318C99.7448 14.0827 99.8848 14.4863 100.152 14.7695C100.422 15.0527 100.8 15.1943 101.285 15.1943C101.63 15.1943 101.939 15.1618 102.212 15.0967C102.489 15.0283 102.774 14.929 103.067 14.7988V15.7314C102.797 15.8584 102.522 15.9512 102.242 16.0098C101.962 16.0684 101.626 16.0977 101.236 16.0977C100.705 16.0977 100.238 15.9951 99.8343 15.79C99.4339 15.5817 99.1198 15.2725 98.892 14.8623C98.6673 14.4521 98.555 13.9427 98.555 13.334C98.555 12.7285 98.6576 12.2142 98.8627 11.791C99.0677 11.3678 99.3558 11.0456 99.7269 10.8242C100.098 10.6029 100.531 10.4922 101.026 10.4922ZM101.026 11.3564C100.664 11.3564 100.371 11.4736 100.147 11.708C99.9255 11.9424 99.7953 12.2858 99.7562 12.7383H102.217C102.214 12.4681 102.168 12.2288 102.08 12.0205C101.996 11.8122 101.866 11.6494 101.69 11.5322C101.517 11.415 101.296 11.3564 101.026 11.3564ZM105.786 16H104.634V8.40234H105.786V16ZM112.842 10.4922C113.451 10.4922 113.925 10.6501 114.263 10.9658C114.605 11.2783 114.776 11.7812 114.776 12.4746V16H113.628V12.6895C113.628 12.2695 113.542 11.9554 113.369 11.7471C113.197 11.5355 112.93 11.4297 112.569 11.4297C112.045 11.4297 111.68 11.5908 111.475 11.9131C111.273 12.2354 111.172 12.7025 111.172 13.3145V16H110.025V10.5947H110.918L111.079 11.3271H111.143C111.26 11.1383 111.405 10.9837 111.577 10.8633C111.753 10.7396 111.949 10.6468 112.163 10.585C112.382 10.5231 112.608 10.4922 112.842 10.4922ZM121.167 13.2852C121.167 13.7344 121.109 14.1331 120.992 14.4814C120.874 14.8298 120.703 15.1243 120.479 15.3652C120.254 15.6029 119.984 15.7852 119.668 15.9121C119.353 16.0358 118.996 16.0977 118.599 16.0977C118.228 16.0977 117.888 16.0358 117.578 15.9121C117.269 15.7852 117.001 15.6029 116.773 15.3652C116.548 15.1243 116.374 14.8298 116.25 14.4814C116.127 14.1331 116.065 13.7344 116.065 13.2852C116.065 12.6895 116.167 12.1849 116.372 11.7715C116.581 11.3548 116.877 11.0374 117.261 10.8193C117.645 10.6012 118.103 10.4922 118.633 10.4922C119.131 10.4922 119.571 10.6012 119.952 10.8193C120.332 11.0374 120.63 11.3548 120.845 11.7715C121.06 12.1882 121.167 12.6927 121.167 13.2852ZM117.246 13.2852C117.246 13.679 117.294 14.016 117.388 14.2959C117.486 14.5758 117.635 14.7907 117.837 14.9404C118.039 15.0869 118.3 15.1602 118.619 15.1602C118.938 15.1602 119.198 15.0869 119.4 14.9404C119.602 14.7907 119.75 14.5758 119.844 14.2959C119.939 14.016 119.986 13.679 119.986 13.2852C119.986 12.8913 119.939 12.5576 119.844 12.2842C119.75 12.0075 119.602 11.7975 119.4 11.6543C119.198 11.5078 118.936 11.4346 118.614 11.4346C118.138 11.4346 117.792 11.5941 117.574 11.9131C117.355 12.2321 117.246 12.6895 117.246 13.2852Z" fill="white"/>
<defs>
<linearGradient id="paint0_linear_6261_30825" x1="34.897" y1="33.8464" x2="18.7353" y2="16.982" gradientUnits="userSpaceOnUse">
<stop stop-color="#00A0FF"/>
<stop offset="0.0066" stop-color="#00A1FF"/>
<stop offset="0.2601" stop-color="#00BEFF"/>
<stop offset="0.5122" stop-color="#00D2FF"/>
<stop offset="0.7604" stop-color="#00DFFF"/>
<stop offset="1" stop-color="#00E3FF"/>
</linearGradient>
<linearGradient id="paint1_linear_6261_30825" x1="47.0014" y1="22.9625" x2="22.6643" y2="22.9625" gradientUnits="userSpaceOnUse">
<stop stop-color="#FFE000"/>
<stop offset="0.4087" stop-color="#FFBD00"/>
<stop offset="0.7754" stop-color="#FFA500"/>
<stop offset="1" stop-color="#FF9C00"/>
</linearGradient>
<linearGradient id="paint2_linear_6261_30825" x1="37.9418" y1="20.7511" x2="16.0252" y2="-2.11835" gradientUnits="userSpaceOnUse">
<stop stop-color="#FF3A44"/>
<stop offset="1" stop-color="#C31162"/>
</linearGradient>
<linearGradient id="paint3_linear_6261_30825" x1="20.3105" y1="42.0717" x2="30.0972" y2="31.8596" gradientUnits="userSpaceOnUse">
<stop stop-color="#32A071"/>
<stop offset="0.0685" stop-color="#2DA771"/>
<stop offset="0.4762" stop-color="#15CF74"/>
<stop offset="0.8009" stop-color="#06E775"/>
<stop offset="1" stop-color="#00F076"/>
</linearGradient>
</defs>
</svg>
